<?xml version="1.0" encoding="iso-8859-1"?>
<!-- Generator: Adobe Illustrator 16.0.0, SVG Export Plug-In . SVG Version: 6.00 Build 0)  -->
<!DOCTYPE svg PUBLIC "-//W3C//DTD SVG 1.1 Tiny//EN" "http://www.w3.org/Graphics/SVG/1.1/DTD/svg11-tiny.dtd" [
	<!ENTITY ns_flows "http://ns.adobe.com/Flows/1.0/">
	<!ENTITY ns_extend "http://ns.adobe.com/Extensibility/1.0/">
	<!ENTITY ns_ai "http://ns.adobe.com/AdobeIllustrator/10.0/">
	<!ENTITY ns_graphs "http://ns.adobe.com/Graphs/1.0/">
]>
<svg version="1.1" baseProfile="tiny" id="Layer_1" xmlns:x="&ns_extend;" xmlns:i="&ns_ai;" xmlns:graph="&ns_graphs;"
	 xmlns="http://www.w3.org/2000/svg" xmlns:xlink="http://www.w3.org/1999/xlink" xmlns:a="http://ns.adobe.com/AdobeSVGViewerExtensions/3.0/"
	 x="0px" y="0px" width="546.911px" height="143.428px" viewBox="0 0 546.911 143.428" xml:space="preserve">
<g>
	<path fill="#FFFFFF" d="M72.828,25.09l-6.411,14.37c-4.08-1.437-8.111-2.587-12.093-3.449c-3.984-0.862-7.674-1.293-11.073-1.293
		c-5.926,0-10.613,1.149-14.06,3.449c-3.449,2.299-5.172,5.223-5.172,8.766c0,3.067,1.286,5.557,3.861,7.472
		c2.572,1.917,5.803,3.642,9.688,5.173c3.884,1.533,8.086,3.089,12.603,4.67s8.717,3.617,12.603,6.107
		c3.883,2.492,7.114,5.654,9.688,9.484c2.572,3.832,3.861,8.719,3.861,14.657c0,4.599-0.852,8.766-2.55,12.502
		c-1.7,3.736-4.25,6.946-7.649,9.628c-3.401,2.683-7.699,4.767-12.894,6.25c-5.197,1.484-11.291,2.228-18.285,2.228
		c-4.275,0-8.159-0.287-11.655-0.862c-3.497-0.574-6.629-1.293-9.397-2.155s-5.222-1.796-7.357-2.802
		c-2.138-1.006-3.984-1.987-5.537-2.946l7.722-15.375c4.08,2.204,8.451,3.904,13.113,5.101c4.662,1.199,8.79,1.797,12.384,1.797
		c1.749,0,4.007-0.191,6.775-0.575c2.769-0.382,5.464-1.101,8.086-2.155c2.622-1.053,4.88-2.49,6.774-4.312
		c1.894-1.818,2.841-4.167,2.841-7.041c0-3.352-1.289-6.106-3.861-8.263c-2.575-2.155-5.805-4.07-9.689-5.748
		c-3.886-1.674-8.086-3.327-12.603-4.957c-4.517-1.628-8.719-3.568-12.603-5.82c-3.886-2.25-7.116-5.029-9.689-8.334
		c-2.575-3.305-3.861-7.495-3.861-12.574c0-3.64,0.729-7.207,2.186-10.706c1.457-3.496,3.665-6.632,6.629-9.412
		c2.962-2.777,6.652-5.029,11.073-6.754c4.418-1.724,9.638-2.586,15.662-2.586c3.788,0,7.453,0.312,11,0.934
		c3.544,0.624,6.725,1.318,9.543,2.083c2.816,0.768,5.147,1.509,6.993,2.228C71.321,24.587,72.438,24.996,72.828,25.09z"/>
	<path fill="#FFFFFF" d="M217.649,19.774c-3.497,9.102-7.139,18.514-10.927,28.236c-3.788,9.725-7.553,19.353-11.292,28.884
		c-3.74,9.533-7.334,18.705-10.781,27.518c-3.449,8.815-6.534,16.862-9.251,24.142l-23.894-58.342
		c-0.389-0.862-0.633-1.437-0.729-1.724c-0.098-0.288-0.244-0.863-0.437-1.725c-0.098,0.384-0.171,0.768-0.219,1.15
		c-0.05,0.384-0.123,0.718-0.218,1.006c-0.098,0.384-0.244,0.768-0.437,1.149c-3.497,7.568-6.848,14.944-10.053,22.13
		c-1.361,3.066-2.793,6.25-4.298,9.556c-1.507,3.305-2.987,6.563-4.444,9.771c-1.457,3.211-2.866,6.3-4.225,9.269
		c-1.361,2.971-2.575,5.651-3.643,8.047c-6.993-18.297-14.037-36.475-21.125-54.533C94.584,56.25,87.543,38.073,80.55,19.774h20.252
		c4.371,12.167,8.571,23.616,12.603,34.344c4.029,10.73,7.162,20.261,9.397,28.596c0.194,0.769,0.387,1.63,0.583,2.587
		c0.193,0.958,0.387,1.82,0.583,2.586c0-0.574,0.219-1.412,0.656-2.515c0.437-1.1,0.751-1.94,0.947-2.515
		c0.096-0.479,0.437-1.365,1.02-2.658c0.583-1.293,1.261-2.803,2.04-4.526c0.776-1.725,1.65-3.615,2.623-5.677
		c0.97-2.059,1.942-4.142,2.914-6.25c2.331-4.886,4.856-10.25,7.576-16.094c-1.361-4.023-2.623-7.854-3.788-11.496
		c-1.07-3.065-2.112-6.154-3.132-9.269c-1.02-3.112-1.773-5.483-2.258-7.113h17.192c4.175,10.633,7.963,20.358,11.364,29.17
		c1.457,3.736,2.914,7.45,4.371,11.137c1.457,3.689,2.768,7.09,3.934,10.203c1.166,3.114,2.161,5.772,2.987,7.976
		c0.824,2.204,1.384,3.688,1.675,4.454c0.387,0.862,0.631,1.702,0.729,2.515c0.096,0.815,0.241,1.652,0.437,2.515
		c0.194-0.862,0.364-1.725,0.51-2.587c0.146-0.861,0.314-1.674,0.51-2.442c0.97-4.312,2.306-8.932,4.007-13.866
		c1.698-4.934,3.569-10.082,5.609-15.448c2.04-5.364,4.2-10.872,6.483-16.525c2.281-5.651,4.492-11.352,6.629-17.1H217.649z"/>
	<path fill="#FFFFFF" d="M287.728,123.954c-0.291-0.669-0.802-1.868-1.53-3.593c-0.729-1.724-1.627-3.83-2.695-6.322
		c-1.069-2.49-2.235-5.245-3.496-8.263c-1.264-3.018-2.575-6.154-3.934-9.412h-36.57l-11.656,27.59h-17.629
		c0.387-0.862,1.311-2.993,2.768-6.395c1.457-3.399,3.278-7.616,5.464-12.646c2.185-5.029,4.612-10.634,7.285-16.813
		c2.67-6.179,5.414-12.478,8.231-18.896c2.816-6.417,5.56-12.717,8.232-18.896c2.67-6.179,5.1-11.783,7.285-16.813
		c2.186-5.03,4.007-9.244,5.464-12.646c1.457-3.399,2.379-5.533,2.768-6.395c0.387,0.862,1.334,2.995,2.841,6.395
		c1.505,3.401,3.351,7.616,5.537,12.646c2.186,5.029,4.612,10.633,7.285,16.813c2.67,6.179,5.413,12.479,8.231,18.896
		c2.815,6.419,5.559,12.718,8.231,18.896c2.671,6.179,5.1,11.783,7.285,16.813s4.007,9.246,5.463,12.646
		c1.457,3.401,2.38,5.532,2.769,6.395H287.728z M245.622,81.564h24.186l-10.49-25.003c-0.098-0.095-0.341-0.741-0.729-1.94
		c-0.389-1.197-0.681-2.274-0.874-3.233c-0.196,0.959-0.487,2.037-0.874,3.233c-0.39,1.199-0.583,1.845-0.583,1.94L245.622,81.564z"
		/>
	<path fill="#FFFFFF" d="M317.595,123.954V19.198h30.014c5.827,0,11.146,0.768,15.953,2.299c4.808,1.534,8.888,3.736,12.238,6.61
		c3.352,2.874,5.948,6.419,7.795,10.633c1.844,4.217,2.769,8.959,2.769,14.226c0,4.217-0.634,8.406-1.895,12.574
		c-1.264,4.167-3.328,7.903-6.192,11.208c-2.865,3.305-6.581,5.988-11.146,8.048c-4.566,2.061-10.198,3.089-16.9,3.089H335.37
		v36.068H317.595z M335.37,71.361h14.278c3.69,0,6.75-0.621,9.179-1.867c2.427-1.244,4.371-2.803,5.828-4.671
		c1.457-1.868,2.477-3.83,3.06-5.892c0.583-2.059,0.874-3.902,0.874-5.532c0-1.531-0.269-3.328-0.801-5.389
		c-0.535-2.059-1.508-3.999-2.914-5.82c-1.409-1.818-3.328-3.352-5.755-4.598c-2.43-1.244-5.537-1.868-9.325-1.868H335.37V71.361z"
		/>
	<path fill="#FFFFFF" d="M402.534,19.198h17.921v104.756h-17.921V19.198z"/>
</g>
</svg>
